<svg xmlns="http://www.w3.org/2000/svg" xmlns:xlink="http://www.w3.org/1999/xlink" version="1.1" width="256" height="256" viewBox="0 0 256 256" xml:space="preserve">

<defs>
</defs>
<g style="stroke: none; stroke-width: 0; stroke-dasharray: none; stroke-linecap: butt; stroke-linejoin: miter; stroke-miterlimit: 10; fill: none; fill-rule: nonzero; opacity: 1;" transform="translate(1.4065934065934016 1.4065934065934016) scale(2.81 2.81)" >
	<path d="M 19.492 37.037 c -0.017 -0.127 -0.129 -0.198 -0.221 -0.206 c -0.092 -0.008 -1.887 -0.035 -1.887 -0.035 s -1.501 -1.458 -1.65 -1.606 c -0.148 -0.148 -0.438 -0.104 -0.551 -0.07 c -0.001 0.001 -0.282 0.087 -0.754 0.234 c -0.079 -0.256 -0.195 -0.571 -0.361 -0.887 c -0.534 -1.02 -1.317 -1.559 -2.263 -1.561 c -0.001 0 -0.002 0 -0.003 0 c -0.066 0 -0.131 0.006 -0.197 0.012 c -0.028 -0.034 -0.056 -0.066 -0.085 -0.099 c -0.412 -0.441 -0.94 -0.656 -1.573 -0.637 c -1.222 0.035 -2.438 0.917 -3.425 2.484 c -0.694 1.103 -1.222 2.488 -1.372 3.56 c -1.403 0.434 -2.384 0.738 -2.405 0.745 c -0.708 0.222 -0.73 0.244 -0.823 0.912 C 1.853 40.388 0 54.714 0 54.714 l 15.526 2.685 l 6.729 -1.673 C 22.255 55.726 19.509 37.164 19.492 37.037 z M 13.652 35.594 c -0.358 0.111 -0.764 0.236 -1.205 0.373 c -0.009 -0.618 -0.083 -1.479 -0.371 -2.223 C 13.003 33.92 13.46 34.969 13.652 35.594 z M 11.635 36.219 c -0.814 0.252 -1.702 0.527 -2.592 0.802 c 0.25 -0.959 0.726 -1.914 1.309 -2.54 c 0.217 -0.233 0.521 -0.493 0.88 -0.641 C 11.57 34.545 11.643 35.544 11.635 36.219 z M 9.97 32.995 c 0.287 -0.006 0.528 0.057 0.735 0.192 c -0.33 0.171 -0.649 0.418 -0.949 0.739 c -0.776 0.833 -1.371 2.125 -1.608 3.372 c -0.74 0.229 -1.463 0.453 -2.129 0.659 C 6.44 35.994 8.085 33.049 9.97 32.995 z" style="stroke: none; stroke-width: 1; stroke-dasharray: none; stroke-linecap: butt; stroke-linejoin: miter; stroke-miterlimit: 10; fill: rgb(149,191,71); fill-rule: nonzero; opacity: 1;" transform=" matrix(1 0 0 1 0 0) " stroke-linecap="round" />
	<path d="M 19.271 36.832 c -0.092 -0.008 -1.887 -0.035 -1.887 -0.035 s -1.501 -1.458 -1.65 -1.606 c -0.055 -0.055 -0.13 -0.084 -0.209 -0.096 l 0.001 22.304 l 6.728 -1.672 c 0 0 -2.745 -18.561 -2.763 -18.689 C 19.475 36.91 19.363 36.839 19.271 36.832 z" style="stroke: none; stroke-width: 1; stroke-dasharray: none; stroke-linecap: butt; stroke-linejoin: miter; stroke-miterlimit: 10; fill: rgb(94,142,62); fill-rule: nonzero; opacity: 1;" transform=" matrix(1 0 0 1 0 0) " stroke-linecap="round" />
	<path d="M 11.797 40.291 l -0.781 2.924 c 0 0 -0.872 -0.397 -1.905 -0.332 c -1.515 0.096 -1.532 1.052 -1.516 1.292 c 0.083 1.308 3.523 1.593 3.716 4.656 c 0.152 2.41 -1.278 4.058 -3.339 4.188 c -2.473 0.156 -3.835 -1.303 -3.835 -1.303 l 0.524 -2.229 c 0 0 1.371 1.034 2.468 0.965 c 0.716 -0.045 0.972 -0.628 0.947 -1.04 c -0.108 -1.706 -2.909 -1.605 -3.086 -4.408 c -0.149 -2.358 1.4 -4.748 4.818 -4.964 C 11.123 39.956 11.797 40.291 11.797 40.291 z" style="stroke: none; stroke-width: 1; stroke-dasharray: none; stroke-linecap: butt; stroke-linejoin: miter; stroke-miterlimit: 10; fill: rgb(255,255,255); fill-rule: nonzero; opacity: 1;" transform=" matrix(1 0 0 1 0 0) " stroke-linecap="round" />
	<path d="M 31.116 46.414 c -0.774 -0.42 -1.171 -0.774 -1.171 -1.26 c 0 -0.619 0.552 -1.017 1.415 -1.017 c 1.004 0 1.901 0.42 1.901 0.42 l 0.707 -2.166 c 0 0 -0.65 -0.509 -2.564 -0.509 c -2.663 0 -4.509 1.525 -4.509 3.669 c 0 1.216 0.862 2.144 2.012 2.807 c 0.928 0.53 1.26 0.906 1.26 1.459 c 0 0.575 -0.464 1.039 -1.326 1.039 c -1.284 0 -2.497 -0.663 -2.497 -0.663 l -0.751 2.166 c 0 0 1.121 0.752 3.006 0.752 c 2.741 0 4.708 -1.348 4.708 -3.78 C 33.304 48.027 32.31 47.099 31.116 46.414 z" style="stroke: none; stroke-width: 1; stroke-dasharray: none; stroke-linecap: butt; stroke-linejoin: miter; stroke-miterlimit: 10; fill: rgb(0,0,0); fill-rule: nonzero; opacity: 1;" transform=" matrix(1 0 0 1 0 0) " stroke-linecap="round" />
	<path d="M 42.036 41.86 c -1.348 0 -2.409 0.641 -3.227 1.613 l -0.044 -0.022 l 1.171 -6.123 h -3.051 l -2.962 15.583 h 3.051 l 1.017 -5.327 c 0.398 -2.012 1.436 -3.249 2.409 -3.249 c 0.685 0 0.951 0.464 0.951 1.128 c 0 0.42 -0.044 0.928 -0.133 1.348 l -1.149 6.1 h 3.051 l 1.193 -6.3 c 0.133 -0.663 0.222 -1.459 0.222 -1.989 C 44.533 42.899 43.627 41.86 42.036 41.86 z" style="stroke: none; stroke-width: 1; stroke-dasharray: none; stroke-linecap: butt; stroke-linejoin: miter; stroke-miterlimit: 10; fill: rgb(0,0,0); fill-rule: nonzero; opacity: 1;" transform=" matrix(1 0 0 1 0 0) " stroke-linecap="round" />
	<path d="M 51.429 41.86 c -3.67 0 -6.1 3.316 -6.1 7.007 c 0 2.365 1.458 4.266 4.2 4.266 c 3.603 0 6.034 -3.227 6.034 -7.007 C 55.563 43.938 54.281 41.86 51.429 41.86 z M 49.926 50.79 c -1.039 0 -1.481 -0.884 -1.481 -1.989 c 0 -1.746 0.907 -4.597 2.564 -4.597 c 1.083 0 1.436 0.928 1.436 1.835 C 52.446 47.917 51.54 50.79 49.926 50.79 z" style="stroke: none; stroke-width: 1; stroke-dasharray: none; stroke-linecap: butt; stroke-linejoin: miter; stroke-miterlimit: 10; fill: rgb(0,0,0); fill-rule: nonzero; opacity: 1;" transform=" matrix(1 0 0 1 0 0) " stroke-linecap="round" />
	<path d="M 63.365 41.86 c -2.059 0 -3.227 1.813 -3.227 1.813 h -0.044 l 0.177 -1.636 h -2.697 c -0.132 1.105 -0.376 2.785 -0.619 4.045 l -2.122 11.162 h 3.051 l 0.839 -4.509 h 0.067 c 0 0 0.626 0.398 1.79 0.398 c 3.581 0 5.923 -3.669 5.923 -7.383 C 66.504 43.695 65.598 41.86 63.365 41.86 z M 60.448 50.834 c -0.792 0 -1.26 -0.442 -1.26 -0.442 l 0.509 -2.851 c 0.354 -1.901 1.348 -3.161 2.41 -3.161 c 0.928 0 1.216 0.862 1.216 1.68 C 63.321 48.027 62.15 50.834 60.448 50.834 z" style="stroke: none; stroke-width: 1; stroke-dasharray: none; stroke-linecap: butt; stroke-linejoin: miter; stroke-miterlimit: 10; fill: rgb(0,0,0); fill-rule: nonzero; opacity: 1;" transform=" matrix(1 0 0 1 0 0) " stroke-linecap="round" />
	<path d="M 70.859 37.484 c -0.972 0 -1.746 0.774 -1.746 1.768 c 0 0.906 0.575 1.525 1.437 1.525 h 0.044 c 0.951 0 1.768 -0.641 1.79 -1.768 C 72.384 38.125 71.787 37.484 70.859 37.484 z" style="stroke: none; stroke-width: 1; stroke-dasharray: none; stroke-linecap: butt; stroke-linejoin: miter; stroke-miterlimit: 10; fill: rgb(0,0,0); fill-rule: nonzero; opacity: 1;" transform=" matrix(1 0 0 1 0 0) " stroke-linecap="round" />
	<path d="M 66.593 52.912 h 3.05 l 2.078 -10.808 h -3.073 L 66.593 52.912 z" style="stroke: none; stroke-width: 1; stroke-dasharray: none; stroke-linecap: butt; stroke-linejoin: miter; stroke-miterlimit: 10; fill: rgb(0,0,0); fill-rule: nonzero; opacity: 1;" transform=" matrix(1 0 0 1 0 0) " stroke-linecap="round" />
	<path d="M 79.479 42.082 h -2.122 l 0.11 -0.509 c 0.177 -1.039 0.796 -1.967 1.813 -1.967 c 0.543 0 0.972 0.155 0.972 0.155 l 0.597 -2.387 c 0 0 -0.53 -0.265 -1.658 -0.265 c -1.083 0 -2.165 0.309 -2.984 1.017 c -1.039 0.884 -1.525 2.166 -1.768 3.448 l -0.088 0.509 h -1.415 l -0.442 2.299 h 1.415 l -1.614 8.532 h 3.051 l 1.614 -8.532 h 2.1 L 79.479 42.082 z" style="stroke: none; stroke-width: 1; stroke-dasharray: none; stroke-linecap: butt; stroke-linejoin: miter; stroke-miterlimit: 10; fill: rgb(0,0,0); fill-rule: nonzero; opacity: 1;" transform=" matrix(1 0 0 1 0 0) " stroke-linecap="round" />
	<path d="M 86.817 42.104 c 0 0 -1.907 4.804 -2.763 7.426 H 84.01 c -0.058 -0.845 -0.752 -7.426 -0.752 -7.426 h -3.205 l 1.835 9.924 c 0.045 0.221 0.022 0.354 -0.066 0.509 c -0.354 0.685 -0.951 1.348 -1.658 1.835 c -0.575 0.42 -1.216 0.685 -1.724 0.862 l 0.84 2.586 c 0.619 -0.133 1.901 -0.641 2.984 -1.658 c 1.393 -1.304 2.674 -3.316 4 -6.057 L 90 42.103 L 86.817 42.104 L 86.817 42.104 z" style="stroke: none; stroke-width: 1; stroke-dasharray: none; stroke-linecap: butt; stroke-linejoin: miter; stroke-miterlimit: 10; fill: rgb(0,0,0); fill-rule: nonzero; opacity: 1;" transform=" matrix(1 0 0 1 0 0) " stroke-linecap="round" />
</g>
</svg>